<svg xmlns="http://www.w3.org/2000/svg" viewBox="0 0 1200 675" width="1200" height="675" role="img" aria-label="Abstraktes Titelbild: ein Weg mit vier Stationen, vom Support-Chat ueber Ticket und Freigabe bis live">
<defs>
<radialGradient id="ground" cx="50%" cy="50%" r="80%">
  <stop offset="0%" stop-color="#1c1610"/><stop offset="55%" stop-color="#120e0a"/>
  <stop offset="100%" stop-color="#090705"/>
</radialGradient>
<radialGradient id="coreglow" cx="50%" cy="50%" r="50%">
  <stop offset="0%" stop-color="#f5bd62" stop-opacity="0.40"/>
  <stop offset="45%" stop-color="#c8863c" stop-opacity="0.16"/>
  <stop offset="100%" stop-color="#c8863c" stop-opacity="0"/>
</radialGradient>
<radialGradient id="vig" cx="50%" cy="48%" r="62%">
  <stop offset="60%" stop-color="#000000" stop-opacity="0"/>
  <stop offset="100%" stop-color="#050403" stop-opacity="0.70"/>
</radialGradient>
</defs>
<rect width="1200" height="675" fill="#0d0a07"/>
<rect width="1200" height="675" fill="url(#ground)"/>
<ellipse cx="600" cy="360" rx="480" ry="240" fill="url(#coreglow)"/>
<line x1="90" y1="360" x2="1110" y2="360" stroke="#ffdca0" stroke-opacity="0.25" stroke-width="2" stroke-dasharray="2 8" stroke-linecap="round"/>
<g fill="#1a140d" fill-opacity="0.94" stroke="#ffdca0" stroke-opacity="0.38" stroke-width="1.5">
  <rect x="127" y="260" width="210" height="200" rx="14"/>
  <rect x="372" y="260" width="210" height="200" rx="14"/>
  <rect x="617" y="260" width="210" height="200" rx="14"/>
  <rect x="862" y="260" width="210" height="200" rx="14"/>
</g>
<g fill="none" stroke="#ffdca0" stroke-opacity="0.85" stroke-width="6" stroke-linecap="round" stroke-linejoin="round">
  <rect x="170" y="312" width="124" height="78" rx="20"/>
  <polygon points="202,390 190,414 226,390"/>
  <line x1="188" y1="336" x2="276" y2="336"/>
  <line x1="188" y1="358" x2="248" y2="358"/>
  <rect x="409" y="310" width="136" height="84" rx="12"/>
  <line x1="453" y1="316" x2="453" y2="388" stroke-dasharray="4 6" stroke-width="3"/>
  <line x1="467" y1="334" x2="529" y2="334"/>
  <line x1="467" y1="356" x2="529" y2="356"/>
  <circle cx="722" cy="352" r="46"/>
  <path d="M700,352 l16,16 l30,-34" stroke-width="9"/>
  <rect x="907" y="318" width="120" height="72" rx="12"/>
  <path d="M923,354 h18 l8,-14 l10,28 l8,-14 h18"/>
  <line x1="967" y1="300" x2="967" y2="272"/>
  <path d="M955,284 l12,-12 l12,12"/>
</g>
<g>
  <circle cx="320" cy="360" r="12" fill="#ffcf7a" opacity="0.30"/>
  <circle cx="320" cy="360" r="5" fill="#ffcf7a"/>
  <circle cx="600" cy="360" r="12" fill="#ffcf7a" opacity="0.30"/>
  <circle cx="600" cy="360" r="5" fill="#ffcf7a"/>
  <circle cx="810" cy="360" r="12" fill="#ffcf7a" opacity="0.30"/>
  <circle cx="810" cy="360" r="5" fill="#ffcf7a"/>
</g>
<rect width="1200" height="675" fill="url(#vig)"/>
<text x="60" y="622" font-family="ui-monospace, Menlo, Consolas, monospace" font-size="20" letter-spacing="6" fill="#e8b968" fill-opacity="0.55">FIELD NOTES</text>
<text x="1140" y="622" text-anchor="end" font-family="ui-monospace, Menlo, Consolas, monospace" font-size="20" letter-spacing="3" fill="#e8b968" fill-opacity="0.40">02.5</text>
</svg>
